<svg width="183" height="17" viewBox="0 0 183 17" fill="none" xmlns="http://www.w3.org/2000/svg">
<path d="M6.292 16.308C9.416 16.308 11.726 14.328 11.726 11.38C11.726 9.202 10.648 8.08 7.37 6.804C5.104 5.924 4.444 5.374 4.444 4.494C4.444 3.658 5.192 3.042 6.138 3.042C7.084 3.042 7.92 3.636 8.404 4.78L10.978 3.174C10.01 1.26 8.338 0.291999 6.226 0.291999C3.3 0.291999 1.342 2.052 1.342 4.56C1.342 6.848 2.508 8.036 5.742 9.334C7.876 10.192 8.624 10.786 8.624 11.666C8.624 12.898 7.678 13.558 6.336 13.558C4.686 13.558 3.52 12.612 3.344 10.808L0.264 11.578C0.726 14.438 3.168 16.308 6.292 16.308ZM13.8987 16H16.9787V9.73H19.0907C22.5447 9.73 24.3707 8.146 24.3707 5.132C24.3707 2.14 22.5887 0.665999 19.0907 0.665999H13.8987V16ZM16.9787 6.892V3.504H18.7827C20.5207 3.504 21.2687 3.9 21.2687 5.176C21.2687 6.474 20.4547 6.892 18.7827 6.892H16.9787ZM34.7045 16H38.0705L31.8445 0.665999H29.5345L23.2645 16H26.6525L27.7305 13.118H33.6265L34.7045 16ZM28.8085 10.258L30.7005 5.264L32.5705 10.258H28.8085ZM51.4049 0.665999L47.7529 10.984L44.1449 0.665999H39.7229V16H42.8249V5.11L46.2789 14.636H49.2709L52.7469 5.044V16H55.8489V0.665999H51.4049Z" fill="#B6393B"/>
<path d="M71.1777 16.374C74.5217 16.374 77.0517 14.702 78.1297 11.688L75.2257 10.588C74.6317 12.458 73.2017 13.404 71.1777 13.404C68.3837 13.404 66.7117 11.556 66.7117 8.3C66.7117 5.044 68.3397 3.218 71.1557 3.218C73.1357 3.218 74.5877 4.142 75.2257 5.968L78.0857 4.846C76.9637 1.92 74.4777 0.269999 71.1557 0.269999C66.5797 0.269999 63.6097 3.416 63.6097 8.322C63.6097 13.206 66.6017 16.374 71.1777 16.374ZM80.178 16H89.704V13.14H83.28V0.665999H80.178V16ZM101.886 16H105.252L99.0261 0.665999H96.7161L90.4461 16H93.8341L94.9121 13.118H100.808L101.886 16ZM95.9901 10.258L97.8821 5.264L99.7521 10.258H95.9901ZM111.351 16.308C114.475 16.308 116.785 14.328 116.785 11.38C116.785 9.202 115.707 8.08 112.429 6.804C110.163 5.924 109.503 5.374 109.503 4.494C109.503 3.658 110.251 3.042 111.197 3.042C112.143 3.042 112.979 3.636 113.463 4.78L116.037 3.174C115.069 1.26 113.397 0.291999 111.285 0.291999C108.359 0.291999 106.401 2.052 106.401 4.56C106.401 6.848 107.567 8.036 110.801 9.334C112.935 10.192 113.683 10.786 113.683 11.666C113.683 12.898 112.737 13.558 111.395 13.558C109.745 13.558 108.579 12.612 108.403 10.808L105.323 11.578C105.785 14.438 108.227 16.308 111.351 16.308ZM123.489 16.308C126.613 16.308 128.923 14.328 128.923 11.38C128.923 9.202 127.845 8.08 124.567 6.804C122.301 5.924 121.641 5.374 121.641 4.494C121.641 3.658 122.389 3.042 123.335 3.042C124.281 3.042 125.117 3.636 125.601 4.78L128.175 3.174C127.207 1.26 125.535 0.291999 123.423 0.291999C120.497 0.291999 118.539 2.052 118.539 4.56C118.539 6.848 119.705 8.036 122.939 9.334C125.073 10.192 125.821 10.786 125.821 11.666C125.821 12.898 124.875 13.558 123.533 13.558C121.883 13.558 120.717 12.612 120.541 10.808L117.461 11.578C117.923 14.438 120.365 16.308 123.489 16.308ZM131.096 16H134.198V0.665999H131.096V16ZM137.692 16H140.794V9.51H147.768V6.65H140.794V3.504H148.692V0.665999H137.692V16ZM150.84 16H153.942V0.665999H150.84V16ZM157.436 16H167.688V13.14H160.538V9.51H167.248V6.65H160.538V3.504H167.688V0.665999H157.436V16ZM182.485 16L178.371 9.378C180.131 8.74 181.121 7.332 181.121 5.132C181.121 2.404 179.603 0.665999 175.841 0.665999H170.649V16H173.729V9.774H174.389H175.291L178.899 16H182.485ZM173.729 6.914V3.504H175.533C176.963 3.504 178.019 3.724 178.019 5.176C178.019 6.65 176.963 6.914 175.533 6.914H173.729Z" fill="white"/>
</svg>
